<svg width="64" height="64" viewBox="0 0 64 64" fill="none" xmlns="http://www.w3.org/2000/svg">
<path d="M14.425 9.89166C11.2161 21.7619 2.8623 28.2508 1.31563 33.9717C-0.231034 39.6925 -0.190147 52.5939 26.1245 59.7085C52.4392 66.8232 60.6703 51.7068 62.3699 45.4134C70.3361 15.9521 20.1085 -11.1323 14.425 9.89166Z" fill="#F7F7F8"/>
<path d="M54.4427 21.7779C52.9724 21.7779 51.776 20.5815 51.776 19.1112C51.776 17.641 52.9724 16.4446 54.4427 16.4446C55.9129 16.4446 57.1093 17.641 57.1093 19.1112C57.1093 20.5815 55.9129 21.7779 54.4427 21.7779ZM54.4427 18.2224C53.952 18.2224 53.5538 18.6224 53.5538 19.1112C53.5538 19.6001 53.952 20.0001 54.4427 20.0001C54.9333 20.0001 55.3316 19.6001 55.3316 19.1112C55.3316 18.6224 54.9333 18.2224 54.4427 18.2224Z" fill="#D2D6DC"/>
<path d="M4.60864 8.90759L5.86572 7.65051L8.37988 10.1647L7.1228 11.4218L4.60864 8.90759Z" fill="#D2D6DC"/>
<path d="M4.29425 17.3937L6.80841 14.8795L8.06549 16.1366L5.55133 18.6508L4.29425 17.3937Z" fill="#D2D6DC"/>
<path d="M11.5214 10.1655L14.0356 7.65137L15.2927 8.90845L12.7785 11.4226L11.5214 10.1655Z" fill="#D2D6DC"/>
<path d="M36.8889 27.1112V46.6668H40H47.1111H50.2222C51.2036 46.6668 52 45.8703 52 44.889V27.1112H36.8889Z" fill="#F7F7F8"/>
<path d="M29.7777 17.3336H10.6666V46.667H31.5555V19.1114C31.5555 18.1301 30.759 17.3336 29.7777 17.3336Z" fill="#2FDF84"/>
<path d="M43.5556 50.222C45.2738 50.222 46.6667 48.8291 46.6667 47.1109C46.6667 45.3926 45.2738 43.9998 43.5556 43.9998C41.8373 43.9998 40.4445 45.3926 40.4445 47.1109C40.4445 48.8291 41.8373 50.222 43.5556 50.222Z" fill="#F7F7F8"/>
<path d="M25.7777 50.222C27.496 50.222 28.8888 48.8291 28.8888 47.1109C28.8888 45.3926 27.496 43.9998 25.7777 43.9998C24.0595 43.9998 22.6666 45.3926 22.6666 47.1109C22.6666 48.8291 24.0595 50.222 25.7777 50.222Z" fill="#F7F7F8"/>
<path d="M15.1112 50.2221C16.8294 50.2221 18.2223 48.8292 18.2223 47.111C18.2223 45.3928 16.8294 43.9999 15.1112 43.9999C13.393 43.9999 12.0001 45.3928 12.0001 47.111C12.0001 48.8292 13.393 50.2221 15.1112 50.2221Z" fill="#F7F7F8"/>
<path d="M43.1113 32.4445H52.0002V38.6667H43.1113V32.4445Z" fill="#2FDF84"/>
<path d="M38.6667 17.3333H36.8889V27.111H48.4445C48.4445 21.7101 44.0676 17.3333 38.6667 17.3333Z" fill="#2FDF84"/>
<path d="M36.8889 27.1112V46.6668H40H40.8889V27.1112H36.8889Z" fill="#D2D6DC"/>
<path d="M10.6666 17.3336H14.6666V46.667H10.6666V17.3336Z" fill="#00B871"/>
<path d="M44.4445 47.1109C44.4445 46.158 44.8818 45.3171 45.5556 44.7464C45.0133 44.2878 44.3218 43.9998 43.5556 43.9998C41.8365 43.9998 40.4445 45.3935 40.4445 47.1109C40.4445 48.8282 41.8365 50.222 43.5556 50.222C44.3218 50.222 45.0133 49.934 45.5556 49.4753C44.8818 48.9046 44.4445 48.0638 44.4445 47.1109Z" fill="#D2D6DC"/>
<path d="M26.6666 47.1109C26.6666 46.158 27.104 45.3171 27.7777 44.7464C27.2355 44.2878 26.544 43.9998 25.7777 43.9998C24.0604 43.9998 22.6666 45.3935 22.6666 47.1109C22.6666 48.8282 24.0604 50.222 25.7777 50.222C26.544 50.222 27.2355 49.934 27.7777 49.4753C27.104 48.9046 26.6666 48.0638 26.6666 47.1109Z" fill="#D2D6DC"/>
<path d="M16.0001 47.111C16.0001 46.1581 16.4374 45.3172 17.1112 44.7465C16.569 44.2879 15.8774 43.9999 15.1112 43.9999C13.3938 43.9999 12.0001 45.3937 12.0001 47.111C12.0001 48.8283 13.3938 50.2221 15.1112 50.2221C15.8774 50.2221 16.569 49.9341 17.1112 49.4754C16.4374 48.9048 16.0001 48.0639 16.0001 47.111Z" fill="#D2D6DC"/>
<path d="M43.1113 32.4445H47.1113V38.6667H43.1113V32.4445Z" fill="#00B871"/>
<path d="M38.6667 17.3333H36.8889V27.111H40.8889V17.5964C40.1742 17.431 39.4329 17.3333 38.6667 17.3333Z" fill="#00B871"/>
<path d="M23.1112 22.6666H25.7779V37.7777H23.1112V22.6666Z" fill="#161E2E"/>
<path d="M14.2221 22.6666H16.8888V37.7777H14.2221V22.6666Z" fill="#161E2E"/>
<path d="M43.5557 51.5558C41.1059 51.5558 39.1113 49.5629 39.1113 47.1113C39.1113 44.6598 41.1059 42.6669 43.5557 42.6669C46.0055 42.6669 48.0002 44.6598 48.0002 47.1113C48.0002 49.5629 46.0055 51.5558 43.5557 51.5558ZM43.5557 45.3335C42.5762 45.3335 41.7779 46.13 41.7779 47.1113C41.7779 48.0926 42.5762 48.8891 43.5557 48.8891C44.5353 48.8891 45.3335 48.0926 45.3335 47.1113C45.3335 46.13 44.5353 45.3335 43.5557 45.3335Z" fill="#161E2E"/>
<path d="M25.7779 51.5558C23.3281 51.5558 21.3334 49.5629 21.3334 47.1113C21.3334 44.6598 23.3281 42.6669 25.7779 42.6669C28.2277 42.6669 30.2223 44.6598 30.2223 47.1113C30.2223 49.5629 28.2277 51.5558 25.7779 51.5558ZM25.7779 45.3335C24.7983 45.3335 24.0001 46.13 24.0001 47.1113C24.0001 48.0926 24.7983 48.8891 25.7779 48.8891C26.7574 48.8891 27.5557 48.0926 27.5557 47.1113C27.5557 46.13 26.7574 45.3335 25.7779 45.3335Z" fill="#161E2E"/>
<path d="M15.1111 51.5558C12.6613 51.5558 10.6666 49.5629 10.6666 47.1113C10.6666 44.6598 12.6613 42.6669 15.1111 42.6669C17.5608 42.6669 19.5555 44.6598 19.5555 47.1113C19.5555 49.5629 17.5608 51.5558 15.1111 51.5558ZM15.1111 45.3335C14.1315 45.3335 13.3333 46.13 13.3333 47.1113C13.3333 48.0926 14.1315 48.8891 15.1111 48.8891C16.0906 48.8891 16.8888 48.0926 16.8888 47.1113C16.8888 46.13 16.0906 45.3335 15.1111 45.3335Z" fill="#161E2E"/>
<path d="M52.0001 40.0003H43.1112C42.3752 40.0003 41.7779 39.403 41.7779 38.667V32.4448C41.7779 31.7088 42.3752 31.1115 43.1112 31.1115H52.0001V33.7781H44.4446V37.3337H52.0001V40.0003Z" fill="#161E2E"/>
<path d="M18.6668 45.3335H22.2224V48.0002H18.6668V45.3335Z" fill="#161E2E"/>
<path d="M31.5558 48.0009H28.0003V45.3342H30.2225V19.112C30.2225 18.8666 30.0234 18.6675 29.778 18.6675H10.6669V16.0009H29.778C31.4936 16.0009 32.8892 17.3964 32.8892 19.112V46.6675C32.8892 47.4035 32.2918 48.0009 31.5558 48.0009Z" fill="#161E2E"/>
<path d="M50.2221 48.0001H47.111V45.3334H50.2221C50.4675 45.3334 50.6666 45.1343 50.6666 44.8889V28.4445H38.2221V45.3334H39.9999V48.0001H36.8888C36.1528 48.0001 35.5555 47.4027 35.5555 46.6667V27.1112C35.5555 26.3752 36.1528 25.7778 36.8888 25.7778H51.9999C52.7359 25.7778 53.3333 26.3752 53.3333 27.1112V44.8889C53.3333 46.6045 51.9377 48.0001 50.2221 48.0001Z" fill="#161E2E"/>
<path d="M49.7777 27.1114H47.111C47.111 22.4554 43.3226 18.6669 38.6666 18.6669H38.2221V27.1114H35.5555V17.3336C35.5555 16.5976 36.1528 16.0002 36.8888 16.0002H38.6666C44.7928 16.0002 49.7777 20.9851 49.7777 27.1114Z" fill="#161E2E"/>
<path d="M31.1113 45.3335H36.4447V48.0002H31.1113V45.3335Z" fill="#161E2E"/>
</svg>
