<svg width="64" height="64" viewBox="0 0 64 64" fill="none" xmlns="http://www.w3.org/2000/svg">
<path d="M47.9679 6.95827C35.6728 7.1876 27.1111 0.976045 21.1857 1.08804C15.2604 1.20004 2.88173 4.83738 3.39195 32.0925C3.90217 59.3476 20.7146 63.0329 27.2319 62.912C57.7457 62.3414 69.7404 6.55116 47.9679 6.95827Z" fill="#F7F7F8"/>
<path d="M53.5502 25.3332C52.0799 25.3332 50.8835 24.1368 50.8835 22.6665C50.8835 21.1963 52.0799 19.9999 53.5502 19.9999C55.0204 19.9999 56.2168 21.1963 56.2168 22.6665C56.2168 24.1368 55.0204 25.3332 53.5502 25.3332ZM53.5502 21.7777C53.0613 21.7777 52.6613 22.1759 52.6613 22.6665C52.6613 23.1572 53.0613 23.5554 53.5502 23.5554C54.039 23.5554 54.439 23.1572 54.439 22.6665C54.439 22.1759 54.039 21.7777 53.5502 21.7777Z" fill="#D2D6DC"/>
<path d="M6.22205 0H7.99982V3.55556H6.22205V0Z" fill="#D2D6DC"/>
<path d="M6.22205 10.2223H7.99982V13.7778H6.22205V10.2223Z" fill="#D2D6DC"/>
<path d="M-6.10352e-05 5.77783H3.55549V7.55561H-6.10352e-05V5.77783Z" fill="#D2D6DC"/>
<path d="M10.2222 5.77783H13.7777V7.55561H10.2222V5.77783Z" fill="#D2D6DC"/>
<path d="M44.8888 27.1109V22.6665H11.9999V43.111C11.9999 44.0923 12.7963 44.8887 13.7777 44.8887H44.8888V27.1109Z" fill="#F7F7F8"/>
<path d="M39.5217 12.9209C39.2088 12.3538 38.6133 12 37.9644 12H18.519C17.8506 12 17.2373 12.3751 16.9351 12.9707L11.9999 22.6667H44.8888L39.5217 12.9209Z" fill="#2FDF84"/>
<path d="M51.4629 33.5502C52.1865 32.8658 52.1705 31.0169 51.4665 30.3111C50.7625 29.6071 48.9136 29.5893 48.2309 30.3146L44.0211 34.7858C43.7705 35.0542 43.3971 35.1698 43.0398 35.0915L31.2905 32.6026C31.0131 32.5422 30.7234 32.6258 30.5225 32.8284C30.046 33.3066 30.142 34.1049 30.7216 34.4551L38.7945 38.7289C39.358 39.0684 39.4683 39.8418 39.0203 40.3253L33.9927 45.7422L31.214 44.528C30.8229 44.3573 30.366 44.4426 30.0638 44.7449C29.6478 45.1609 29.6994 45.8524 30.174 46.2009L33.2051 48.4338C33.3349 48.528 33.4469 48.6435 33.5411 48.7715L35.6069 51.6035C35.9536 52.0782 36.6434 52.1333 37.0594 51.7155C37.3616 51.4133 37.4487 50.9564 37.2763 50.5635L36.062 47.7831L41.47 42.7573C41.95 42.3129 42.718 42.4178 43.0611 42.976L47.534 51.2462C47.886 51.8186 48.6789 51.9111 49.1536 51.4364C49.3598 51.2302 49.4434 50.9315 49.3776 50.6489L46.6771 38.7751C46.5918 38.4124 46.7056 38.0302 46.9794 37.776L51.4629 33.5502Z" fill="#2FDF84"/>
<path d="M15.9999 43.111V22.6665H11.9999V43.111C11.9999 44.0923 12.7963 44.8887 13.7777 44.8887H17.7777C16.7963 44.8887 15.9999 44.0923 15.9999 43.111Z" fill="#D2D6DC"/>
<path d="M22.519 12H18.519C17.8506 12 17.2373 12.3751 16.9351 12.9707L11.9999 22.6667H15.9999L20.9351 12.9707C21.239 12.3751 21.8506 12 22.519 12Z" fill="#00B871"/>
<path d="M30.7181 34.455L38.791 38.7288C39.3546 39.0683 39.4648 39.8417 39.0168 40.3252L35.1252 44.519C35.1537 44.5279 35.1839 44.5172 35.2106 44.5279L37.9892 45.7421L43.0168 40.3252C43.4648 39.8417 43.3546 39.0683 42.791 38.7288L34.7181 34.455C34.2843 34.1937 34.1208 33.6781 34.2683 33.2355L31.2888 32.6043C31.0115 32.5439 30.7217 32.6275 30.5208 32.8301C30.0426 33.3066 30.1403 34.1066 30.7181 34.455Z" fill="#00B871"/>
<path d="M47.0401 35.0933C47.3974 35.1715 47.7708 35.056 48.0214 34.7875L51.7726 30.8018C51.6908 30.6133 51.593 30.4391 51.4668 30.3111C50.7628 29.6071 48.9139 29.5893 48.2312 30.3146L44.2828 34.5084L47.0401 35.0933Z" fill="#00B871"/>
<path d="M36.0603 47.7867L36.1759 47.6801L34.1705 46.2045C33.9874 46.0694 33.8879 45.8792 33.8328 45.6765L31.2105 44.5298C30.8194 44.3592 30.3625 44.4445 30.0603 44.7467C29.6443 45.1627 29.6959 45.8525 30.1705 46.2027L33.2017 48.4356C33.3314 48.5298 33.4434 48.6454 33.5377 48.7734L35.6034 51.6054C35.9501 52.0818 36.6399 52.1352 37.0559 51.7174C37.3581 51.4152 37.4452 50.9583 37.2728 50.5654L36.0603 47.7867Z" fill="#00B871"/>
<path d="M47.0577 42.9796C46.7146 42.4213 45.9466 42.3165 45.4666 42.7609L43.7849 44.3236L47.5306 51.2498C47.8826 51.8222 48.6755 51.9147 49.1502 51.44C49.3564 51.2338 49.44 50.9351 49.3742 50.6525L48.0444 44.8018L47.0577 42.9796Z" fill="#00B871"/>
<path d="M25.7779 46.2223H13.7779C12.0623 46.2223 10.6667 44.8267 10.6667 43.1112V22.6667C10.6667 21.9307 11.2641 21.3334 12.0001 21.3334H44.889C45.625 21.3334 46.2223 21.9307 46.2223 22.6667V27.1112H43.5556V24H13.3334V43.1112C13.3334 43.3565 13.5325 43.5556 13.7779 43.5556H25.7779V46.2223Z" fill="#161E2E"/>
<path d="M43.722 23.3101L38.3532 13.5643C38.2749 13.4203 38.1256 13.3332 37.9638 13.3332H18.5203C18.3532 13.3332 18.2003 13.4256 18.1238 13.5767L13.1887 23.2709L10.8136 22.0621L15.7487 12.3661C16.282 11.3172 17.3452 10.6665 18.5203 10.6665H37.9656C39.0998 10.6665 40.1452 11.2834 40.6909 12.2772L46.0598 22.0229L43.722 23.3101Z" fill="#161E2E"/>
<path d="M27.1111 12H29.7778V22.6667H27.1111V12Z" fill="#161E2E"/>
<path d="M36.3803 53.3331C36.3216 53.3331 36.263 53.3313 36.2025 53.326C35.5341 53.2745 34.9225 52.9349 34.5279 52.3927L32.4621 49.5607L29.3812 47.278C28.8407 46.8798 28.503 46.2682 28.4532 45.6016C28.4034 44.9349 28.6452 44.2789 29.1199 43.806C29.815 43.1091 30.8514 42.9171 31.7474 43.31L33.6585 44.1456L37.7812 39.7011L30.0976 35.6336C29.4025 35.2176 28.9919 34.5811 28.903 33.8522C28.8123 33.1216 29.0612 32.4069 29.5803 31.8878C30.1065 31.3633 30.8532 31.1447 31.5767 31.3011L43.1643 33.7545L47.2639 29.4007C47.8203 28.8087 48.7341 28.4585 49.7652 28.4442C50.8176 28.3731 51.8079 28.7642 52.4105 29.3687C53.015 29.9713 53.351 30.9367 53.3367 32.0176C53.3207 33.0487 52.9723 33.9607 52.3803 34.5207L48.0141 38.6345L50.679 50.3553C50.8496 51.0878 50.6327 51.8469 50.0976 52.382C49.5839 52.8993 48.8816 53.1518 48.1456 53.0611C47.4203 52.9758 46.7821 52.5705 46.3999 51.9482L42.0976 43.9962L37.6639 48.1189L38.4994 50.0336C38.8887 50.9189 38.6879 51.9749 38.0034 52.6611C37.5696 53.0931 36.9865 53.3331 36.3803 53.3331ZM48.0745 50.9491C48.0763 50.9491 48.0763 50.9509 48.0763 50.9527L48.0745 50.9491ZM42.1705 41.15C42.279 41.15 42.3856 41.1571 42.4959 41.1731C43.2016 41.2691 43.8203 41.6727 44.1954 42.2807L47.4896 48.3678L45.3776 39.0736C45.1839 38.2611 45.447 37.3865 46.0674 36.8051L50.5403 32.5882C50.7234 32.3411 50.7092 31.4807 50.519 31.2442C50.2967 31.0682 49.4274 31.0593 49.191 31.2425L44.9954 35.6993C44.4319 36.3038 43.5767 36.574 42.7554 36.3927L33.5465 34.4425L39.4185 37.55C40.0976 37.9571 40.5065 38.5758 40.6079 39.2869C40.7092 39.998 40.487 40.7056 39.9981 41.2318L34.9705 46.6505C34.583 47.0665 33.9767 47.1891 33.4594 46.9651L33.4559 46.9633L33.9945 47.3598C34.2345 47.5358 34.4461 47.7473 34.6221 47.9891L34.8141 48.254C34.6256 47.7491 34.7572 47.1785 35.1536 46.8087L40.5616 41.7811C41.0025 41.3722 41.5767 41.15 42.1705 41.15ZM47.9714 38.4673L47.9732 38.4727C47.9714 38.4727 47.9714 38.4691 47.9714 38.4673ZM31.0132 33.9091H31.0185H31.0132ZM43.3119 33.7865H43.3154C43.3136 33.7882 43.3136 33.7882 43.3119 33.7865Z" fill="#161E2E"/>
</svg>
