<svg width="64" height="64" viewBox="0 0 64 64" fill="none" xmlns="http://www.w3.org/2000/svg">
<path d="M62.0515 36.1867C55.328 25.8915 56.0427 15.3387 52.8018 10.3769C49.5609 5.4151 39.9022 -3.13957 17.0809 11.7671C-5.74046 26.6738 0.0639858 42.8782 3.63021 48.3342C20.32 73.8844 73.9609 54.4195 62.0515 36.1867Z" fill="#F7F7F8"/>
<path d="M10.1312 5.75684L12.6454 3.24268L13.9025 4.49976L11.3883 7.01391L10.1312 5.75684Z" fill="#D2D6DC"/>
<path d="M2.90277 12.9841L5.41693 10.47L6.67401 11.7271L4.15985 14.2412L2.90277 12.9841Z" fill="#D2D6DC"/>
<path d="M2.90308 4.18433L4.16015 2.92725L6.67431 5.4414L5.41723 6.69848L2.90308 4.18433Z" fill="#D2D6DC"/>
<path d="M48.4444 30.4373C46.9742 30.4373 45.7777 29.2409 45.7777 27.7707C45.7777 26.3004 46.9742 25.104 48.4444 25.104C49.9146 25.104 51.111 26.3004 51.111 27.7707C51.111 29.2409 49.9146 30.4373 48.4444 30.4373ZM48.4444 26.8818C47.9555 26.8818 47.5555 27.28 47.5555 27.7707C47.5555 28.2613 47.9555 28.6596 48.4444 28.6596C48.9333 28.6596 49.3333 28.2613 49.3333 27.7707C49.3333 27.28 48.9333 26.8818 48.4444 26.8818Z" fill="#D2D6DC"/>
<path d="M34.7199 29.7778H14.6666V36.0001V48.4445H20.8888H27.0755H40.4443V36.0889V29.7778H34.7199Z" fill="#F7F7F8"/>
<path d="M44.8889 36.0889H40.4445V48.4444H42.2222H48.4071H52V43.2C52 39.2729 48.816 36.0889 44.8889 36.0889Z" fill="#2FDF84"/>
<path d="M24 52.0001C25.7182 52.0001 27.1111 50.6072 27.1111 48.8889C27.1111 47.1707 25.7182 45.7778 24 45.7778C22.2818 45.7778 20.8889 47.1707 20.8889 48.8889C20.8889 50.6072 22.2818 52.0001 24 52.0001Z" fill="#F7F7F8"/>
<path d="M45.3332 52.0001C47.0514 52.0001 48.4443 50.6072 48.4443 48.8889C48.4443 47.1707 47.0514 45.7778 45.3332 45.7778C43.615 45.7778 42.2221 47.1707 42.2221 48.8889C42.2221 50.6072 43.615 52.0001 45.3332 52.0001Z" fill="#F7F7F8"/>
<path d="M28.8889 30.6667H13.7778C12.7964 30.6667 12 29.8702 12 28.8889V13.7778C12 12.7964 12.7964 12 13.7778 12H28.8889C29.8702 12 30.6667 12.7964 30.6667 13.7778V28.8889C30.6667 29.8702 29.8702 30.6667 28.8889 30.6667Z" fill="#2FDF84"/>
<path d="M19.1111 12H23.5555V18.2222H19.1111V12Z" fill="#2FDF84"/>
<path d="M18.6666 29.7778H14.6666V36.0001V48.4445H18.6666V36.0001V29.7778Z" fill="#D2D6DC"/>
<path d="M40.4445 36.0889V48.4444H42.2222H44.4445V36.0889H40.4445Z" fill="#00B871"/>
<path d="M24.8889 48.8889C24.8889 47.9361 25.3262 47.0952 26 46.5245C25.4578 46.0658 24.7662 45.7778 24 45.7778C22.2827 45.7778 20.8889 47.1716 20.8889 48.8889C20.8889 50.6063 22.2827 52.0001 24 52.0001C24.7662 52.0001 25.4578 51.7121 26 51.2534C25.3262 50.6827 24.8889 49.8418 24.8889 48.8889Z" fill="#D2D6DC"/>
<path d="M46.2221 48.8889C46.2221 47.9361 46.6594 47.0952 47.3332 46.5245C46.791 46.0658 46.0994 45.7778 45.3332 45.7778C43.6159 45.7778 42.2221 47.1716 42.2221 48.8889C42.2221 50.6063 43.6159 52.0001 45.3332 52.0001C46.0994 52.0001 46.791 51.7121 47.3332 51.2534C46.6594 50.6827 46.2221 49.8418 46.2221 48.8889Z" fill="#D2D6DC"/>
<path d="M16 28.8889V13.7778C16 12.7964 16.7964 12 17.7778 12H13.7778C12.7964 12 12 12.7964 12 13.7778V28.8889C12 29.8702 12.7964 30.6667 13.7778 30.6667H17.7778C16.7964 30.6667 16 29.8702 16 28.8889Z" fill="#00B871"/>
<path d="M28.8888 31.9998H13.7777C12.0621 31.9998 10.6666 30.6043 10.6666 28.8887V13.7776C10.6666 12.0621 12.0621 10.6665 13.7777 10.6665H28.8888C30.6043 10.6665 31.9999 12.0621 31.9999 13.7776V28.8887C31.9999 30.6043 30.6043 31.9998 28.8888 31.9998ZM13.7777 13.3332C13.5323 13.3332 13.3332 13.5323 13.3332 13.7776V28.8887C13.3332 29.1341 13.5323 29.3332 13.7777 29.3332H28.8888C29.1341 29.3332 29.3332 29.1341 29.3332 28.8887V13.7776C29.3332 13.5323 29.1341 13.3332 28.8888 13.3332H13.7777Z" fill="#161E2E"/>
<path d="M23.5557 19.5554H19.1113C18.3753 19.5554 17.778 18.9581 17.778 18.2221V11.9998C17.778 11.2638 18.3753 10.6665 19.1113 10.6665H23.5557C24.2917 10.6665 24.8891 11.2638 24.8891 11.9998V18.2221C24.8891 18.9581 24.2917 19.5554 23.5557 19.5554ZM20.4446 16.8887H22.2224V13.3332H20.4446V16.8887Z" fill="#161E2E"/>
<path d="M23.5556 24.8889H27.1112V27.5556H23.5556V24.8889Z" fill="#161E2E"/>
<path d="M22.2224 49.7776H14.6668C13.9308 49.7776 13.3335 49.1803 13.3335 48.4443V34.6665H16.0002V47.1109H22.2224V49.7776Z" fill="#161E2E"/>
<path d="M40.4446 49.7779H25.7424V47.1112H39.1113V31.1112H34.6135V28.4446H40.4446C41.1806 28.4446 41.7779 29.0419 41.7779 29.7779V48.4446C41.7779 49.1806 41.1806 49.7779 40.4446 49.7779Z" fill="#161E2E"/>
<path d="M52 49.7778H47.0738V47.1112H50.6667V43.2001C50.6667 40.0143 48.0747 37.4223 44.8889 37.4223H41.7778V47.1112H43.5556V49.7778H40.4445C39.7085 49.7778 39.1111 49.1805 39.1111 48.4445V36.0889C39.1111 35.3529 39.7085 34.7556 40.4445 34.7556H44.8889C49.5449 34.7556 53.3334 38.5441 53.3334 43.2001V48.4445C53.3334 49.1805 52.736 49.7778 52 49.7778Z" fill="#161E2E"/>
<path d="M24 53.3335C21.5485 53.3335 19.5556 51.3388 19.5556 48.889C19.5556 46.4392 21.5485 44.4446 24 44.4446C26.4516 44.4446 28.4445 46.4392 28.4445 48.889C28.4445 51.3388 26.4516 53.3335 24 53.3335ZM24 47.1112C23.0187 47.1112 22.2223 47.9095 22.2223 48.889C22.2223 49.8686 23.0187 50.6668 24 50.6668C24.9814 50.6668 25.7778 49.8686 25.7778 48.889C25.7778 47.9095 24.9814 47.1112 24 47.1112Z" fill="#161E2E"/>
<path d="M45.3334 53.3335C42.8819 53.3335 40.889 51.3388 40.889 48.889C40.889 46.4392 42.8819 44.4446 45.3334 44.4446C47.785 44.4446 49.7779 46.4392 49.7779 48.889C49.7779 51.3388 47.785 53.3335 45.3334 53.3335ZM45.3334 47.1112C44.3521 47.1112 43.5556 47.9095 43.5556 48.889C43.5556 49.8686 44.3521 50.6668 45.3334 50.6668C46.3148 50.6668 47.1112 49.8686 47.1112 48.889C47.1112 47.9095 46.3148 47.1112 45.3334 47.1112Z" fill="#161E2E"/>
</svg>
