<svg width="29" height="30" viewBox="0 0 29 30" fill="none" xmlns="http://www.w3.org/2000/svg">
<path d="M23.4117 16.383C23.147 16.383 22.8703 16.2988 22.6056 16.2386C22.0696 16.1205 21.5428 15.9637 21.0294 15.7694C20.4713 15.5663 19.8577 15.5769 19.3069 15.799C18.756 16.0211 18.3068 16.4391 18.0456 16.9726L17.7809 17.514C16.609 16.8621 15.5322 16.0524 14.5805 15.1077C13.6357 14.156 12.826 13.0791 12.1741 11.9072L12.6795 11.5703C13.2129 11.3092 13.6309 10.8599 13.853 10.3091C14.0751 9.7582 14.0857 9.14466 13.8826 8.58649C13.6916 8.07205 13.5348 7.54551 13.4134 7.01035C13.3532 6.74565 13.3051 6.46892 13.269 6.19219C13.1229 5.3447 12.679 4.57723 12.0173 4.02798C11.3555 3.47873 10.5194 3.1838 9.65951 3.1963H6.05001C5.53148 3.19144 5.01799 3.29835 4.5445 3.50977C4.071 3.72118 3.64862 4.03214 3.3061 4.42147C2.96358 4.8108 2.70897 5.26935 2.55961 5.76593C2.41024 6.2625 2.36961 6.78542 2.44051 7.29911C3.08148 12.3396 5.38349 17.023 8.98291 20.6093C12.5823 24.1957 17.274 26.4806 22.3168 27.1032H22.774C23.6613 27.1045 24.5179 26.779 25.1804 26.1888C25.561 25.8484 25.8651 25.4311 26.0725 24.9644C26.2799 24.4977 26.3859 23.9924 26.3835 23.4817V19.8722C26.3688 19.0365 26.0645 18.2317 25.5225 17.5954C24.9805 16.9591 24.2345 16.5306 23.4117 16.383ZM24.0133 23.602C24.0131 23.7729 23.9765 23.9417 23.906 24.0973C23.8354 24.2529 23.7326 24.3916 23.6042 24.5044C23.4698 24.6205 23.3126 24.7072 23.1427 24.759C22.9728 24.8108 22.794 24.8265 22.6176 24.8052C18.1116 24.2274 13.9262 22.166 10.7216 18.9461C7.5169 15.7262 5.47539 11.5311 4.91903 7.02238C4.89988 6.84613 4.91666 6.66784 4.96836 6.49827C5.02006 6.32869 5.10561 6.17136 5.21982 6.03578C5.33257 5.90744 5.47136 5.80458 5.62695 5.73405C5.78254 5.66351 5.95137 5.62692 6.1222 5.6267H9.7317C10.0115 5.62048 10.2847 5.71198 10.5043 5.88547C10.7239 6.05895 10.8762 6.30357 10.9349 6.5772C10.983 6.90607 11.0432 7.23093 11.1153 7.55177C11.2543 8.18601 11.4393 8.8093 11.6688 9.41668L9.98436 10.1987C9.84034 10.2648 9.71079 10.3587 9.60315 10.475C9.49551 10.5913 9.4119 10.7277 9.35712 10.8764C9.30234 11.025 9.27747 11.1831 9.28394 11.3414C9.29041 11.4997 9.32809 11.6552 9.39481 11.799C11.1264 15.508 14.1079 18.4895 17.817 20.2211C18.1099 20.3415 18.4385 20.3415 18.7314 20.2211C18.8814 20.1675 19.0193 20.0845 19.1371 19.9771C19.2548 19.8697 19.35 19.74 19.4172 19.5955L20.1632 17.911C20.7852 18.1335 21.42 18.3183 22.0642 18.4645C22.385 18.5367 22.7099 18.5968 23.0387 18.645C23.3124 18.7037 23.557 18.8559 23.7305 19.0755C23.904 19.2951 23.9955 19.5683 23.9892 19.8481L24.0133 23.602Z" fill="#161E2E"/>
</svg>
