<svg width="29" height="29" viewBox="0 0 29 29" fill="none" xmlns="http://www.w3.org/2000/svg">
<path d="M14.3949 2.39905C11.8498 2.39905 9.40886 3.41011 7.60916 5.20981C5.80946 7.00951 4.7984 9.45043 4.7984 11.9956C4.7984 18.4733 13.2554 25.7906 13.6152 26.1025C13.8325 26.2884 14.109 26.3905 14.3949 26.3905C14.6809 26.3905 14.9574 26.2884 15.1747 26.1025C15.5945 25.7906 23.9915 18.4733 23.9915 11.9956C23.9915 9.45043 22.9804 7.00951 21.1807 5.20981C19.381 3.41011 16.9401 2.39905 14.3949 2.39905ZM14.3949 23.5714C11.8399 21.1723 7.19754 16.0021 7.19754 11.9956C7.19754 10.0867 7.95583 8.25603 9.30561 6.90626C10.6554 5.55648 12.4861 4.79818 14.3949 4.79818C16.3038 4.79818 18.1345 5.55648 19.4843 6.90626C20.8341 8.25603 21.5924 10.0867 21.5924 11.9956C21.5924 16.0021 16.95 21.1843 14.3949 23.5714ZM14.3949 7.19732C13.4459 7.19732 12.5182 7.47873 11.7292 8.00597C10.9401 8.53322 10.3251 9.2826 9.96192 10.1594C9.59875 11.0361 9.50373 12.0009 9.68887 12.9317C9.87401 13.8625 10.331 14.7174 11.0021 15.3885C11.6731 16.0595 12.5281 16.5165 13.4588 16.7017C14.3896 16.8868 15.3544 16.7918 16.2312 16.4286C17.1079 16.0654 17.8573 15.4504 18.3846 14.6614C18.9118 13.8723 19.1932 12.9446 19.1932 11.9956C19.1932 10.723 18.6877 9.50255 17.7878 8.6027C16.888 7.70285 15.6675 7.19732 14.3949 7.19732ZM14.3949 14.3947C13.9204 14.3947 13.4566 14.254 13.0621 13.9904C12.6675 13.7268 12.36 13.3521 12.1784 12.9137C11.9968 12.4753 11.9493 11.9929 12.0419 11.5275C12.1345 11.0622 12.363 10.6347 12.6985 10.2991C13.034 9.96362 13.4615 9.73513 13.9269 9.64255C14.3923 9.54998 14.8747 9.59749 15.3131 9.77908C15.7514 9.96066 16.1261 10.2682 16.3898 10.6627C16.6534 11.0572 16.7941 11.5211 16.7941 11.9956C16.7941 12.6319 16.5413 13.2421 16.0914 13.692C15.6415 14.142 15.0312 14.3947 14.3949 14.3947Z" fill="#00B871"/>
</svg>
