<svg width="29" height="30" viewBox="0 0 29 30" fill="none" xmlns="http://www.w3.org/2000/svg">
<path d="M22.7921 5.30774H5.99812C5.04368 5.30774 4.12834 5.68689 3.45345 6.36178C2.77856 7.03666 2.39941 7.95201 2.39941 8.90644V20.9021C2.39941 21.8566 2.77856 22.7719 3.45345 23.4468C4.12834 24.1217 5.04368 24.5008 5.99812 24.5008H22.7921C23.7465 24.5008 24.6619 24.1217 25.3367 23.4468C26.0116 22.7719 26.3908 21.8566 26.3908 20.9021V8.90644C26.3908 7.95201 26.0116 7.03666 25.3367 6.36178C24.6619 5.68689 23.7465 5.30774 22.7921 5.30774ZM22.3002 7.70688L15.2468 14.7603C15.1353 14.8728 15.0026 14.962 14.8564 15.0229C14.7102 15.0838 14.5535 15.1152 14.3951 15.1152C14.2367 15.1152 14.0799 15.0838 13.9338 15.0229C13.7876 14.962 13.6549 14.8728 13.5434 14.7603L6.48994 7.70688H22.3002ZM23.9916 20.9021C23.9916 21.2203 23.8653 21.5254 23.6403 21.7503C23.4153 21.9753 23.1102 22.1017 22.7921 22.1017H5.99812C5.67997 22.1017 5.37486 21.9753 5.1499 21.7503C4.92493 21.5254 4.79855 21.2203 4.79855 20.9021V9.39827L11.852 16.4517C12.5268 17.1256 13.4414 17.5042 14.3951 17.5042C15.3488 17.5042 16.2634 17.1256 16.9382 16.4517L23.9916 9.39827V20.9021Z" fill="#161E2E"/>
</svg>
