<svg width="66" height="36" viewBox="0 0 66 36" fill="none" xmlns="http://www.w3.org/2000/svg">
<path d="M13.5172 20.191C13.6183 20.191 13.6857 20.191 13.7868 20.2247H18.9442C19.0453 20.2247 19.1127 20.2247 19.2138 20.191C19.3824 20.1573 19.5846 20.1236 19.7532 20.0562C20.6296 19.6854 21.1015 18.6741 20.933 17.7977C20.7644 17.0561 20.1914 16.4494 19.4835 16.2471C19.3824 16.2134 19.315 16.2134 19.2138 16.1797C19.1127 16.1797 19.0453 16.1797 18.9442 16.146H13.7868C13.5509 16.146 13.4834 16.146 13.2475 16.2134C13.0789 16.2471 12.9104 16.3482 12.7419 16.4494C12.034 16.8876 11.6295 17.764 11.798 18.573C11.9666 19.4157 12.7082 20.0562 13.5172 20.191Z" fill="#00B871"/>
<path d="M1.75264 4.01044C1.82005 4.04415 1.92118 4.04415 2.0223 4.04415H7.17966C7.28079 4.04415 7.34821 4.04415 7.44933 4.01044C7.61787 3.97673 7.82012 3.94303 7.98866 3.87561C8.86508 3.50482 9.33699 2.49357 9.16845 1.61716C8.99991 0.875576 8.42687 0.268828 7.719 0.0665788C7.61787 0.0328706 7.55046 0.0328706 7.44933 -0.000837661C7.34821 -0.000837661 7.28079 -0.000837661 7.17966 -0.0345459H2.0223C1.78635 -0.000837661 1.71893 -0.000837661 1.48297 0.0665788C1.31443 0.100287 1.14589 0.201412 0.977348 0.302536C0.235766 0.740744 -0.135025 1.61716 0.0335167 2.42616C0.202058 3.26886 0.909931 3.90932 1.75264 4.01044Z" fill="#00B871"/>
<path d="M6.26987 16.2471C6.16875 16.2134 6.10133 16.2134 6.0002 16.1797C5.89908 16.1797 5.83166 16.1797 5.73054 16.146H2.93275C2.6968 16.146 2.62938 16.146 2.39342 16.2134C2.22488 16.2471 2.05634 16.3482 1.8878 16.4494C1.17993 16.8876 0.775426 17.764 0.943967 18.573C1.11251 19.382 1.82038 20.0562 2.66309 20.1573C2.76421 20.1573 2.83163 20.1573 2.93275 20.191H5.73054C5.83166 20.191 5.89908 20.191 6.0002 20.1573C6.16874 20.1236 6.37099 20.0899 6.53954 20.0224C7.41595 19.6517 7.88787 18.6404 7.71932 17.764C7.55078 17.0561 6.97774 16.4494 6.26987 16.2471Z" fill="#00B871"/>
<path d="M16.3487 31.214C16.2475 31.1803 16.1801 31.1803 16.079 31.1466C15.9779 31.1466 15.9105 31.1466 15.8093 31.1129H13.0115C12.7756 31.1129 12.7082 31.1129 12.4722 31.1803C12.3037 31.214 12.1351 31.3152 11.9666 31.4163C11.2587 31.8545 10.8542 32.7309 11.0228 33.5399C11.1913 34.3489 11.8992 35.0231 12.7419 35.1242C12.843 35.1242 12.9104 35.1242 13.0115 35.1579H15.8093C15.9105 35.1579 15.9779 35.1579 16.079 35.1242C16.2475 35.0905 16.4498 35.0568 16.6183 34.9894C17.4947 34.6186 17.9667 33.6073 17.7981 32.7309C17.6296 32.023 17.0565 31.4163 16.3487 31.214Z" fill="#00B871"/>
<path d="M65.36 9.54041V9.5067C65.36 9.47299 65.36 9.40558 65.36 9.37187C65.3263 9.06849 65.1578 8.76512 64.9555 8.52916C64.8544 8.39433 64.787 8.36062 64.6859 8.29321C64.6522 8.29321 64.6522 8.2595 64.6184 8.2595C64.6184 8.2595 64.5847 8.2595 64.5847 8.22579L50.6969 0.203226C50.6295 0.169518 50.5621 0.13581 50.4947 0.102101C50.2924 0.0346848 50.2587 0.0346848 50.0228 0.000976562C49.9554 0.000976562 49.8879 0.000976562 49.8205 0.000976562C49.7868 0.000976562 49.7868 0.000976562 49.7531 0.000976562H15.8089C15.5729 0.000976562 15.5055 0.000976562 15.2696 0.0683931C15.101 0.102101 14.9325 0.203226 14.7639 0.304351C14.0561 0.742558 13.6516 1.61897 13.8201 2.42797C13.9887 3.23697 14.6965 3.91113 15.5392 4.01226C15.6404 4.01226 15.7078 4.01226 15.8089 4.04597H25.1798C25.2809 4.04597 25.4158 4.07967 25.5169 4.07967C25.5843 4.07967 25.6517 4.11338 25.7191 4.11338C26.427 4.31563 27 4.92238 27.1686 5.66396C27.3708 6.54038 26.8652 7.55162 25.9888 7.92241C25.8203 7.98983 25.6517 8.05725 25.4495 8.05725C25.3483 8.05725 25.2809 8.05725 25.1798 8.09096H2.02223C1.78627 8.09096 1.71886 8.09096 1.4829 8.15837C1.31436 8.19208 1.14582 8.2932 0.977276 8.39433C0.269403 8.83254 -0.135096 9.70895 0.033445 10.5179C0.201986 11.3269 0.909859 12.0011 1.75257 12.1022C1.85369 12.1022 1.92111 12.1022 2.02223 12.1359H29.9327C30.0338 12.1359 30.1686 12.1697 30.2697 12.1697C30.3372 12.1697 30.4046 12.2034 30.472 12.2034C31.1799 12.4056 31.7529 13.0124 31.9214 13.7539C32.1237 14.6304 31.6181 15.6416 30.7417 16.0124C30.5731 16.0798 30.4046 16.1472 30.2023 16.1472C30.1012 16.1472 30.0338 16.1472 29.9327 16.1809H25.7528C25.5169 16.1809 25.4495 16.1809 25.2135 16.2484C25.045 16.2821 24.8764 16.3832 24.7079 16.4843C24 16.9225 23.5955 17.7989 23.764 18.6079C23.9326 19.4169 24.6405 20.0911 25.4832 20.1922C25.5843 20.1922 25.6517 20.1922 25.7528 20.2259H35.9664C36.8766 20.2259 37.5844 19.4843 37.5844 18.6079V12.8775C37.5844 12.6416 37.8541 12.5067 38.0563 12.6079L45.2025 16.754C47.1239 17.8663 48.3037 19.9225 48.3037 22.1473V25.7541C48.3037 28.0462 45.8092 29.4957 43.8205 28.3496L37.9552 24.9451C37.753 24.844 37.6181 24.6417 37.5507 24.4057C37.4159 23.6642 36.7417 23.1248 35.9664 23.1248H10.4156C10.1796 23.1248 10.1122 23.1248 9.87625 23.1922C9.70771 23.226 9.53917 23.3271 9.37063 23.4282C8.66276 23.8664 8.25826 24.7428 8.4268 25.5518C8.59534 26.3608 9.30321 27.035 10.1459 27.1361C10.247 27.1361 10.3145 27.1361 10.4156 27.1698H27.6742C27.7753 27.1698 27.9102 27.2035 28.0113 27.2035C28.0787 27.2035 28.1461 27.2372 28.2135 27.2372C28.9214 27.4395 29.4945 28.0462 29.663 28.7878C29.8652 29.6642 29.3596 30.6755 28.4832 31.0463C28.3147 31.1137 28.1461 31.1811 27.9439 31.1811C27.8427 31.1811 27.7753 31.1811 27.6742 31.2148H22.5843C22.3483 31.2148 22.2809 31.2148 22.0449 31.2822C21.8764 31.3159 21.7078 31.4171 21.5393 31.5182C20.8314 31.9564 20.4269 32.8328 20.5955 33.6418C20.764 34.4508 21.4719 35.125 22.3146 35.2261C22.4157 35.2261 22.4831 35.2261 22.5843 35.2598H49.8205H49.8542C49.8879 35.2598 49.8879 35.2598 49.9217 35.2598C49.9554 35.2598 49.9891 35.2598 50.0228 35.2598C50.0565 35.2598 50.0902 35.2598 50.1576 35.2598C50.2587 35.2261 50.3936 35.2261 50.4947 35.1587C50.5284 35.1587 50.5621 35.125 50.5958 35.0913C50.7307 35.0238 50.8318 34.9564 50.9329 34.889L64.5847 26.9676C64.6522 26.9339 64.7196 26.9002 64.787 26.8327C65.0229 26.6305 65.2252 26.3608 65.3263 26.0575C65.3937 25.8552 65.3937 25.7878 65.3937 25.5855V9.57412C65.36 9.57412 65.36 9.57412 65.36 9.54041ZM50.461 3.70888L60.2364 9.33816C60.4049 9.43929 60.4049 9.70895 60.2364 9.81008L58.315 10.9224C57.9779 11.1247 57.5734 11.1247 57.2701 10.9224L47.5284 5.29317C47.3261 5.15834 47.3261 4.88867 47.5284 4.75384L49.3823 3.67518C49.7194 3.50663 50.1239 3.50663 50.461 3.70888ZM49.3823 15.4731L39.6406 9.84378C39.4384 9.70895 39.4384 9.43929 39.6406 9.30445L41.4946 8.22579C41.8317 8.02354 42.2362 8.02354 42.5733 8.22579L52.3486 13.8551C52.5172 13.9562 52.5172 14.2259 52.3486 14.327L50.4273 15.4394C50.1239 15.6416 49.7194 15.6416 49.3823 15.4731ZM62.2252 24.2709C62.2252 24.5406 62.0903 24.7765 61.8544 24.9114L52.5846 30.271C52.1127 30.5406 51.5059 30.2036 51.5059 29.6305V18.9113C51.5059 18.6416 51.6408 18.4057 51.8767 18.2708L54.3711 16.8214C54.3711 18.6753 54.3711 21.3383 54.3711 22.6529C54.3711 23.0237 54.7756 23.2597 55.079 23.0574L58.9555 20.8327C59.1914 20.6978 59.36 20.4282 59.36 20.1585V13.9562L61.1465 12.9449C61.6184 12.6753 62.2252 13.0124 62.2252 13.5854V24.2709Z" fill="#F4FBF7"/>
</svg>
