<svg width="64" height="64" viewBox="0 0 64 64" fill="none" xmlns="http://www.w3.org/2000/svg">
<circle cx="32" cy="32" r="30" fill="#F4FBF7" stroke="#2FDF84" stroke-width="4"/>
<path d="M42.6134 29.3321L32.4157 23.4838C31.8639 23.1652 31.2376 22.9983 30.6004 23C29.9632 23.0018 29.3378 23.1721 28.7878 23.4938C28.2377 23.8155 27.7826 24.277 27.4687 24.8314C27.1547 25.3859 26.9931 26.0136 27.0002 26.6508V38.3897C27.0002 39.3472 27.3806 40.2655 28.0577 40.9426C28.7347 41.6196 29.653 42 30.6106 42C31.2444 41.9989 31.8669 41.8315 32.4157 41.5144L42.6134 35.6661C43.1613 35.3489 43.6162 34.8933 43.9325 34.3449C44.2487 33.7964 44.4152 33.1744 44.4152 32.5413C44.4152 31.9082 44.2487 31.2863 43.9325 30.7378C43.6162 30.1894 43.1613 29.7337 42.6134 29.4166V29.3321ZM41.5577 33.7553L31.3601 39.6881C31.1315 39.8176 30.8733 39.8857 30.6106 39.8857C30.3478 39.8857 30.0896 39.8176 29.861 39.6881C29.6331 39.5565 29.4439 39.3673 29.3123 39.1393C29.1807 38.9114 29.1115 38.6528 29.1115 38.3897V26.6086C29.1115 26.3454 29.1807 26.0868 29.3123 25.8589C29.4439 25.631 29.6331 25.4417 29.861 25.3101C30.0906 25.1825 30.348 25.1136 30.6106 25.1095C30.8729 25.1149 31.1301 25.1837 31.3601 25.3101L41.5577 31.2007C41.7857 31.3322 41.975 31.5214 42.1067 31.7494C42.2383 31.9773 42.3077 32.2359 42.3077 32.4991C42.3077 32.7623 42.2383 33.0209 42.1067 33.2488C41.975 33.4768 41.7857 33.666 41.5577 33.7976V33.7553Z" fill="#00B871"/>
</svg>
