<svg width="128" height="128" viewBox="0 0 128 128" fill="none" xmlns="http://www.w3.org/2000/svg">
<path d="M95.936 13.9168C71.3457 14.3754 54.2222 1.95233 42.3715 2.17633C30.5208 2.40033 5.76352 9.675 6.78396 64.1852C7.8044 118.695 41.4293 126.066 54.464 125.824C115.492 124.683 139.481 13.1026 95.936 13.9168Z" fill="#F7F7F8"/>
<path d="M107.1 50.6667C104.16 50.6667 101.767 48.2738 101.767 45.3333C101.767 42.3929 104.16 40 107.1 40C110.041 40 112.434 42.3929 112.434 45.3333C112.434 48.2738 110.041 50.6667 107.1 50.6667ZM107.1 43.5556C106.123 43.5556 105.323 44.352 105.323 45.3333C105.323 46.3147 106.123 47.1111 107.1 47.1111C108.078 47.1111 108.878 46.3147 108.878 45.3333C108.878 44.352 108.078 43.5556 107.1 43.5556Z" fill="#D2D6DC"/>
<path d="M12.4442 0H15.9998V7.11111H12.4442V0Z" fill="#D2D6DC"/>
<path d="M12.4442 20.4443H15.9998V27.5554H12.4442V20.4443Z" fill="#D2D6DC"/>
<path d="M-6.10352e-05 11.5557H7.11105V15.1112H-6.10352e-05V11.5557Z" fill="#D2D6DC"/>
<path d="M20.4443 11.5557H27.5554V15.1112H20.4443V11.5557Z" fill="#D2D6DC"/>
<path d="M89.7776 54.2219V45.333H23.9999V86.2219C23.9999 88.1846 25.5928 89.7775 27.5554 89.7775H89.7776V54.2219Z" fill="#F7F7F8"/>
<path d="M79.0435 25.8418C78.4177 24.7076 77.2266 24 75.9288 24H37.0382C35.7013 24 34.4746 24.7502 33.8702 25.9413L23.9999 45.3333H89.7777L79.0435 25.8418Z" fill="#2FDF84"/>
<path d="M102.926 67.1004C104.373 65.7315 104.341 62.0337 102.933 60.6222C101.525 59.2142 97.8272 59.1786 96.4619 60.6293L88.0423 69.5715C87.541 70.1084 86.7943 70.3395 86.0797 70.1831L62.581 65.2053C62.0263 65.0844 61.4468 65.2515 61.045 65.6568C60.0921 66.6133 60.2841 68.2097 61.4432 68.9102L77.589 77.4577C78.7161 78.1368 78.9366 79.6835 78.0406 80.6506L67.9855 91.4844L62.4281 89.056C61.6459 88.7146 60.7321 88.8853 60.1277 89.4897C59.2957 90.3217 59.3988 91.7048 60.3481 92.4017L66.4103 96.8675C66.6699 97.056 66.8939 97.2871 67.0823 97.5431L71.2139 103.207C71.9072 104.156 73.2868 104.267 74.1188 103.431C74.7232 102.827 74.8975 101.913 74.5526 101.127L72.1241 95.5662L82.9401 85.5146C83.9001 84.6257 85.4361 84.8355 86.1223 85.952L95.0681 102.492C95.7721 103.637 97.3579 103.822 98.3072 102.873C98.7197 102.46 98.8868 101.863 98.7552 101.298L93.3543 77.5502C93.1837 76.8249 93.4112 76.0604 93.9588 75.552L102.926 67.1004Z" fill="#2FDF84"/>
<path d="M31.9999 86.2219V45.333H23.9999V86.2219C23.9999 88.1846 25.5928 89.7775 27.5554 89.7775H35.5554C33.5928 89.7775 31.9999 88.1846 31.9999 86.2219Z" fill="#D2D6DC"/>
<path d="M45.0382 24H37.0382C35.7013 24 34.4746 24.7502 33.8702 25.9413L23.9999 45.3333H31.9999L41.8702 25.9413C42.4782 24.7502 43.7013 24 45.0382 24Z" fill="#00B871"/>
<path d="M61.4363 68.9103L77.5821 77.4578C78.7092 78.1369 78.9296 79.6836 78.0336 80.6507L70.2505 89.0383C70.3074 89.0561 70.3679 89.0347 70.4212 89.0561L75.9785 91.4845L86.0336 80.6507C86.9296 79.6836 86.7092 78.1369 85.5821 77.4578L69.4363 68.9103C68.5688 68.3876 68.2416 67.3565 68.5368 66.4712L62.5776 65.2089C62.023 65.0881 61.4434 65.2552 61.0416 65.6605C60.0852 66.6134 60.2808 68.2134 61.4363 68.9103Z" fill="#00B871"/>
<path d="M94.0802 70.1866C94.7948 70.3431 95.5415 70.112 96.0428 69.5751L103.545 61.6035C103.381 61.2266 103.186 60.8782 102.933 60.6222C101.525 59.2142 97.8277 59.1786 96.4624 60.6293L88.5655 69.0168L94.0802 70.1866Z" fill="#00B871"/>
<path d="M72.1208 95.5732L72.3519 95.3599L68.3412 92.4088C67.975 92.1385 67.7759 91.7581 67.6657 91.3528L62.4212 89.0594C61.639 88.7181 60.7252 88.8888 60.1208 89.4932C59.2888 90.3252 59.3919 91.7048 60.3412 92.4052L66.4034 96.871C66.663 97.0594 66.887 97.2905 67.0754 97.5465L71.207 103.211C71.9003 104.163 73.2799 104.27 74.1119 103.435C74.7163 102.83 74.8905 101.916 74.5457 101.131L72.1208 95.5732Z" fill="#00B871"/>
<path d="M94.1155 85.9589C93.4293 84.8425 91.8933 84.6327 90.9333 85.5216L87.5698 88.6469L95.0613 102.499C95.7653 103.644 97.3511 103.829 98.3004 102.88C98.7129 102.467 98.88 101.87 98.7484 101.305L96.0889 89.6033L94.1155 85.9589Z" fill="#00B871"/>
<path d="M51.5557 92.4443H27.5557C24.1246 92.4443 21.3335 89.6532 21.3335 86.2221V45.3332C21.3335 43.8612 22.5282 42.6665 24.0002 42.6665H89.7779C91.2499 42.6665 92.4446 43.8612 92.4446 45.3332V54.2221H87.1113V47.9998H26.6668V86.2221C26.6668 86.7127 27.0651 87.111 27.5557 87.111H51.5557V92.4443Z" fill="#161E2E"/>
<path d="M87.444 46.6201L76.7062 27.1286C76.5497 26.8406 76.2511 26.6663 75.9275 26.6663H37.0404C36.7062 26.6663 36.4004 26.8512 36.2475 27.1535L26.3773 46.5419L21.6271 44.1241L31.4973 24.7321C32.564 22.6343 34.6902 21.333 37.0404 21.333H75.9311C78.1995 21.333 80.2902 22.5668 81.3817 24.5543L92.1195 44.0459L87.444 46.6201Z" fill="#161E2E"/>
<path d="M54.2222 24H59.5555V45.3333H54.2222V24Z" fill="#161E2E"/>
<path d="M72.7606 106.666C72.6433 106.666 72.5259 106.663 72.405 106.652C71.0682 106.549 69.845 105.87 69.0557 104.786L64.9242 99.1216L58.7624 94.5563C57.6815 93.7598 57.0059 92.5367 56.9064 91.2034C56.8068 89.87 57.2904 88.558 58.2397 87.6123C59.6299 86.2185 61.7028 85.8345 63.4948 86.6203L67.317 88.2914L75.5624 79.4025L60.1953 71.2674C58.805 70.4354 57.9837 69.1625 57.8059 67.7047C57.6246 66.2434 58.1224 64.814 59.1606 63.7758C60.213 62.7269 61.7064 62.2896 63.1535 62.6025L86.3286 67.5092L94.5277 58.8016C95.6406 57.6176 97.4682 56.9172 99.5304 56.8887C101.635 56.7465 103.616 57.5287 104.821 58.7376C106.03 59.9429 106.702 61.8736 106.673 64.0354C106.641 66.0976 105.945 67.9216 104.761 69.0416L96.0282 77.2692L101.358 100.711C101.699 102.176 101.265 103.694 100.195 104.764C99.1677 105.799 97.7633 106.304 96.2913 106.122C94.8406 105.952 93.5642 105.141 92.7997 103.897L84.1953 87.9927L75.3277 96.238L76.9988 100.067C77.7775 101.838 77.3757 103.95 76.0068 105.322C75.1393 106.186 73.973 106.666 72.7606 106.666ZM96.149 101.898C96.1526 101.898 96.1526 101.902 96.1526 101.906L96.149 101.898ZM84.341 82.3003C84.5579 82.3003 84.7713 82.3145 84.9917 82.3465C86.4033 82.5385 87.6406 83.3456 88.3908 84.5616L94.9793 96.7358L90.7553 78.1474C90.3677 76.5225 90.8939 74.7732 92.1348 73.6105L101.081 65.1767C101.447 64.6825 101.418 62.9616 101.038 62.4887C100.593 62.1367 98.8548 62.1189 98.3819 62.4852L89.9908 71.3989C88.8637 72.6078 87.1535 73.1483 85.5108 72.7856L67.093 68.8852L78.837 75.1003C80.1953 75.9145 81.013 77.1518 81.2157 78.574C81.4184 79.9963 80.9739 81.4114 79.9962 82.4638L69.941 93.3012C69.1659 94.1332 67.9535 94.3785 66.9188 93.9305L66.9117 93.9269L67.989 94.7198C68.469 95.0718 68.8922 95.4949 69.2442 95.9785L69.6282 96.5083C69.2513 95.4985 69.5144 94.3572 70.3073 93.6176L81.1233 83.5625C82.005 82.7447 83.1535 82.3003 84.341 82.3003ZM95.9428 76.9349L95.9464 76.9456C95.9428 76.9456 95.9428 76.9385 95.9428 76.9349ZM62.0264 67.8185H62.037H62.0264ZM86.6237 67.5732H86.6308C86.6273 67.5767 86.6273 67.5767 86.6237 67.5732Z" fill="#161E2E"/>
</svg>
