<svg width="129" height="128" viewBox="0 0 129 128" fill="none" xmlns="http://www.w3.org/2000/svg">
<path d="M30.285 14.8157C54.8788 14.8157 71.7677 2.07617 83.6183 2.07617C95.469 2.07617 120.358 8.88862 120.358 63.406C120.358 117.923 86.8752 125.923 73.8406 125.923C12.8023 125.927 -13.2705 14.8157 30.285 14.8157Z" fill="#F7F7F8"/>
<path d="M46.2777 12.583H53.3888V16.1386H46.2777V12.583Z" fill="#D2D6DC"/>
<path d="M25.8333 12.583H32.9444V16.1386H25.8333V12.583Z" fill="#D2D6DC"/>
<path d="M38.2777 0.138672H41.8333V7.24978H38.2777V0.138672Z" fill="#D2D6DC"/>
<path d="M100.745 62.6667C97.8048 62.6667 95.412 60.2738 95.412 57.3333C95.412 54.3929 97.8048 52 100.745 52C103.686 52 106.079 54.3929 106.079 57.3333C106.079 60.2738 103.686 62.6667 100.745 62.6667ZM100.745 55.5556C99.7675 55.5556 98.9675 56.3556 98.9675 57.3333C98.9675 58.3111 99.7675 59.1111 100.745 59.1111C101.723 59.1111 102.523 58.3111 102.523 57.3333C102.523 56.3556 101.727 55.5556 100.745 55.5556Z" fill="#D2D6DC"/>
<path d="M69.9401 59.5557H29.8334V72.0001V96.889H42.2778H54.6512H81.389V72.1779V59.5557H69.9401Z" fill="#F7F7F8"/>
<path d="M90.2777 72.1777H81.3888V96.8888H84.9444H97.3141H104.5V86.4C104.5 78.5457 98.1319 72.1777 90.2777 72.1777Z" fill="#2FDF84"/>
<path d="M48.5 104C51.9365 104 54.7222 101.214 54.7222 97.7779C54.7222 94.3414 51.9365 91.5557 48.5 91.5557C45.0636 91.5557 42.2778 94.3414 42.2778 97.7779C42.2778 101.214 45.0636 104 48.5 104Z" fill="#F7F7F8"/>
<path d="M91.1666 104C94.6031 104 97.3888 101.214 97.3888 97.7779C97.3888 94.3414 94.6031 91.5557 91.1666 91.5557C87.7302 91.5557 84.9444 94.3414 84.9444 97.7779C84.9444 101.214 87.7302 104 91.1666 104Z" fill="#F7F7F8"/>
<path d="M54.7222 39.3316C54.7222 51.9573 39.6111 64.8889 39.6111 64.8889C39.6111 64.8889 24.5 51.9609 24.5 39.3316C24.5 30.8658 31.2662 24 39.6111 24C47.956 24 54.7222 30.8658 54.7222 39.3316Z" fill="#2FDF84"/>
<path d="M39.611 43.5554C42.0656 43.5554 44.0555 41.5655 44.0555 39.1109C44.0555 36.6563 42.0656 34.6665 39.611 34.6665C37.1564 34.6665 35.1666 36.6563 35.1666 39.1109C35.1666 41.5655 37.1564 43.5554 39.611 43.5554Z" fill="#F7F7F8"/>
<path d="M37.8334 59.5557H29.8334V72.0001V96.889H37.8334V72.0001V59.5557Z" fill="#D2D6DC"/>
<path d="M81.3888 72.1777V96.8888H84.9443H89.3888V72.1777H81.3888Z" fill="#00B871"/>
<path d="M50.2778 97.7779C50.2778 95.8721 51.1525 94.1903 52.5 93.049C51.4156 92.1317 50.0325 91.5557 48.5 91.5557C45.0654 91.5557 42.2778 94.3432 42.2778 97.7779C42.2778 101.213 45.0654 104 48.5 104C50.0325 104 51.4156 103.424 52.5 102.507C51.1525 101.365 50.2778 99.6837 50.2778 97.7779Z" fill="#D2D6DC"/>
<path d="M92.9444 97.7779C92.9444 95.8721 93.8191 94.1903 95.1666 93.049C94.0822 92.1317 92.6991 91.5557 91.1666 91.5557C87.732 91.5557 84.9444 94.3432 84.9444 97.7779C84.9444 101.213 87.732 104 91.1666 104C92.6991 104 94.0822 103.424 95.1666 102.507C93.8191 101.365 92.9444 99.6837 92.9444 97.7779Z" fill="#D2D6DC"/>
<path d="M32.5 39.3316C32.5 32.2773 37.2218 26.4 43.6111 24.6116C42.3276 24.2524 41.0049 24 39.6111 24C31.2662 24 24.5 30.8658 24.5 39.3316C24.5 51.9573 39.6111 64.8889 39.6111 64.8889C39.6111 64.8889 41.3391 63.3991 43.6111 60.9707C39.1347 56.192 32.5 47.7084 32.5 39.3316Z" fill="#00B871"/>
<path d="M39.6112 67.5557C38.9925 67.5557 38.3738 67.3424 37.8796 66.9157C37.2218 66.3539 21.8334 53.0313 21.8334 39.3317C21.8334 29.4082 29.8085 21.3335 39.6112 21.3335C49.4139 21.3335 57.389 29.4082 57.389 39.3317C57.389 53.0313 42.0005 66.3539 41.3427 66.9157C40.8485 67.3424 40.2299 67.5557 39.6112 67.5557ZM39.6112 26.6668C32.749 26.6668 27.1667 32.3486 27.1667 39.3317C27.1667 48.1566 35.8281 57.5611 39.6112 61.2482C43.3943 57.5611 52.0556 48.1566 52.0556 39.3317C52.0556 32.3486 46.4734 26.6668 39.6112 26.6668Z" fill="#161E2E"/>
<path d="M39.611 46.2222C35.6892 46.2222 32.4999 43.0329 32.4999 39.1111C32.4999 35.1893 35.6892 32 39.611 32C43.5328 32 46.7221 35.1893 46.7221 39.1111C46.7221 43.0329 43.5328 46.2222 39.611 46.2222ZM39.611 37.3333C38.6332 37.3333 37.8332 38.1333 37.8332 39.1111C37.8332 40.0889 38.6332 40.8889 39.611 40.8889C40.5888 40.8889 41.3888 40.0889 41.3888 39.1111C41.3888 38.1333 40.5888 37.3333 39.611 37.3333Z" fill="#161E2E"/>
<path d="M42.2776 99.5556H29.8331C28.3611 99.5556 27.1665 98.3609 27.1665 96.8889V72H32.4998V94.2222H42.2776V99.5556Z" fill="#161E2E"/>
<path d="M81.3887 99.5553H54.6509V94.222H78.722V62.222H57.3887V56.8887H81.3887C82.8607 56.8887 84.0553 58.0833 84.0553 59.5553V96.8887C84.0553 98.3607 82.8607 99.5553 81.3887 99.5553Z" fill="#161E2E"/>
<path d="M104.5 99.5557H97.3141V94.2223H101.833V86.4001C101.833 80.0286 96.6492 74.8446 90.2777 74.8446H84.0554V94.2223H84.9443V99.5557H81.3888C79.9168 99.5557 78.7221 98.361 78.7221 96.889V72.1779C78.7221 70.7059 79.9168 69.5112 81.3888 69.5112H90.2777C99.5897 69.5112 107.167 77.0881 107.167 86.4001V96.889C107.167 98.361 105.972 99.5557 104.5 99.5557Z" fill="#161E2E"/>
<path d="M48.5 106.666C43.5969 106.666 39.6111 102.681 39.6111 97.7776C39.6111 92.8745 43.5969 88.8887 48.5 88.8887C53.4031 88.8887 57.3889 92.8745 57.3889 97.7776C57.3889 102.681 53.4031 106.666 48.5 106.666ZM48.5 94.222C46.5373 94.222 44.9444 95.8149 44.9444 97.7776C44.9444 99.7402 46.5373 101.333 48.5 101.333C50.4627 101.333 52.0556 99.7402 52.0556 97.7776C52.0556 95.8149 50.4627 94.222 48.5 94.222Z" fill="#161E2E"/>
<path d="M91.1666 106.666C86.2635 106.666 82.2777 102.681 82.2777 97.7776C82.2777 92.8745 86.2635 88.8887 91.1666 88.8887C96.0697 88.8887 100.055 92.8745 100.055 97.7776C100.055 102.681 96.0697 106.666 91.1666 106.666ZM91.1666 94.222C89.2039 94.222 87.611 95.8149 87.611 97.7776C87.611 99.7402 89.2039 101.333 91.1666 101.333C93.1293 101.333 94.7222 99.7402 94.7222 97.7776C94.7222 95.8149 93.1293 94.222 91.1666 94.222Z" fill="#161E2E"/>
</svg>
