<svg width="128" height="128" viewBox="0 0 128 128" fill="none" xmlns="http://www.w3.org/2000/svg">
<path d="M28.8498 19.7831C22.4321 43.5235 5.72451 56.5013 2.63117 67.9431C-0.46216 79.3848 -0.380385 105.188 52.249 119.417C104.878 133.646 121.341 103.413 124.74 90.8266C140.672 31.904 40.217 -22.2649 28.8498 19.7831Z" fill="#F7F7F8"/>
<path d="M108.885 43.5558C105.945 43.5558 103.552 41.1629 103.552 38.2225C103.552 35.282 105.945 32.8892 108.885 32.8892C111.826 32.8892 114.219 35.282 114.219 38.2225C114.219 41.1629 111.826 43.5558 108.885 43.5558ZM108.885 36.4447C107.904 36.4447 107.107 37.2447 107.107 38.2225C107.107 39.2003 107.904 40.0003 108.885 40.0003C109.867 40.0003 110.663 39.2003 110.663 38.2225C110.663 37.2447 109.867 36.4447 108.885 36.4447Z" fill="#D2D6DC"/>
<path d="M9.21701 17.8154L11.7312 15.3013L16.7595 20.3296L14.2453 22.8437L9.21701 17.8154Z" fill="#D2D6DC"/>
<path d="M8.58844 34.7876L13.6168 29.7593L16.1309 32.2734L11.1026 37.3018L8.58844 34.7876Z" fill="#D2D6DC"/>
<path d="M23.0427 20.3315L28.071 15.3032L30.5851 17.8174L25.5568 22.8457L23.0427 20.3315Z" fill="#D2D6DC"/>
<path d="M73.7779 54.2222V93.3333H80.0001H94.2223H100.445C102.407 93.3333 104 91.7404 104 89.7777V54.2222H73.7779Z" fill="#F7F7F8"/>
<path d="M59.5553 34.667H21.3331V93.3337H63.1108V38.2225C63.1108 36.2599 61.518 34.667 59.5553 34.667Z" fill="#2FDF84"/>
<path d="M87.111 100.444C90.5475 100.444 93.3332 97.6587 93.3332 94.2222C93.3332 90.7858 90.5475 88 87.111 88C83.6746 88 80.8888 90.7858 80.8888 94.2222C80.8888 97.6587 83.6746 100.444 87.111 100.444Z" fill="#F7F7F8"/>
<path d="M51.5554 100.444C54.9918 100.444 57.7776 97.6587 57.7776 94.2222C57.7776 90.7858 54.9918 88 51.5554 88C48.1189 88 45.3331 90.7858 45.3331 94.2222C45.3331 97.6587 48.1189 100.444 51.5554 100.444Z" fill="#F7F7F8"/>
<path d="M30.2223 100.444C33.6587 100.444 36.4445 97.6587 36.4445 94.2222C36.4445 90.7858 33.6587 88 30.2223 88C26.7858 88 24.0001 90.7858 24.0001 94.2222C24.0001 97.6587 26.7858 100.444 30.2223 100.444Z" fill="#F7F7F8"/>
<path d="M86.2227 64.8892H104V77.3336H86.2227V64.8892Z" fill="#2FDF84"/>
<path d="M77.3334 34.6665H73.7779V54.2221H96.889C96.889 43.4203 88.1352 34.6665 77.3334 34.6665Z" fill="#2FDF84"/>
<path d="M73.7779 54.2222V93.3333H80.0001H81.7779V54.2222H73.7779Z" fill="#D2D6DC"/>
<path d="M21.3331 34.667H29.3331V93.3337H21.3331V34.667Z" fill="#00B871"/>
<path d="M88.8888 94.2222C88.8888 92.3164 89.7635 90.6347 91.111 89.4933C90.0266 88.576 88.6435 88 87.111 88C83.6728 88 80.8888 90.7876 80.8888 94.2222C80.8888 97.6569 83.6728 100.444 87.111 100.444C88.6435 100.444 90.0266 99.8684 91.111 98.9511C89.7635 97.8098 88.8888 96.128 88.8888 94.2222Z" fill="#D2D6DC"/>
<path d="M53.3331 94.2222C53.3331 92.3164 54.2078 90.6347 55.5554 89.4933C54.4709 88.576 53.0878 88 51.5554 88C48.1207 88 45.3331 90.7876 45.3331 94.2222C45.3331 97.6569 48.1207 100.444 51.5554 100.444C53.0878 100.444 54.4709 99.8684 55.5554 98.9511C54.2078 97.8098 53.3331 96.128 53.3331 94.2222Z" fill="#D2D6DC"/>
<path d="M32.0001 94.2222C32.0001 92.3164 32.8747 90.6347 34.2223 89.4933C33.1378 88.576 31.7547 88 30.2223 88C26.7876 88 24.0001 90.7876 24.0001 94.2222C24.0001 97.6569 26.7876 100.444 30.2223 100.444C31.7547 100.444 33.1378 99.8684 34.2223 98.9511C32.8747 97.8098 32.0001 96.128 32.0001 94.2222Z" fill="#D2D6DC"/>
<path d="M86.2227 64.8892H94.2227V77.3336H86.2227V64.8892Z" fill="#00B871"/>
<path d="M77.3334 34.6665H73.7779V54.2221H81.7779V35.1927C80.3485 34.8621 78.8659 34.6665 77.3334 34.6665Z" fill="#00B871"/>
<path d="M46.2223 45.333H51.5556V75.5552H46.2223V45.333Z" fill="#161E2E"/>
<path d="M28.4443 45.333H33.7776V75.5552H28.4443V45.333Z" fill="#161E2E"/>
<path d="M87.1112 103.111C82.2117 103.111 78.2224 99.1255 78.2224 94.2224C78.2224 89.3193 82.2117 85.3335 87.1112 85.3335C92.0108 85.3335 96.0001 89.3193 96.0001 94.2224C96.0001 99.1255 92.0108 103.111 87.1112 103.111ZM87.1112 90.6668C85.1521 90.6668 83.5557 92.2597 83.5557 94.2224C83.5557 96.1851 85.1521 97.7779 87.1112 97.7779C89.0704 97.7779 90.6668 96.1851 90.6668 94.2224C90.6668 92.2597 89.0704 90.6668 87.1112 90.6668Z" fill="#161E2E"/>
<path d="M51.5556 103.111C46.656 103.111 42.6667 99.1255 42.6667 94.2224C42.6667 89.3193 46.656 85.3335 51.5556 85.3335C56.4551 85.3335 60.4445 89.3193 60.4445 94.2224C60.4445 99.1255 56.4551 103.111 51.5556 103.111ZM51.5556 90.6668C49.5965 90.6668 48 92.2597 48 94.2224C48 96.1851 49.5965 97.7779 51.5556 97.7779C53.5147 97.7779 55.1111 96.1851 55.1111 94.2224C55.1111 92.2597 53.5147 90.6668 51.5556 90.6668Z" fill="#161E2E"/>
<path d="M30.222 103.111C25.3225 103.111 21.3331 99.1255 21.3331 94.2224C21.3331 89.3193 25.3225 85.3335 30.222 85.3335C35.1216 85.3335 39.1109 89.3193 39.1109 94.2224C39.1109 99.1255 35.1216 103.111 30.222 103.111ZM30.222 90.6668C28.2629 90.6668 26.6665 92.2597 26.6665 94.2224C26.6665 96.1851 28.2629 97.7779 30.222 97.7779C32.1811 97.7779 33.7776 96.1851 33.7776 94.2224C33.7776 92.2597 32.1811 90.6668 30.222 90.6668Z" fill="#161E2E"/>
<path d="M104 80.0004H86.2224C84.7504 80.0004 83.5557 78.8058 83.5557 77.3338V64.8893C83.5557 63.4173 84.7504 62.2227 86.2224 62.2227H104V67.556H88.8891V74.6671H104V80.0004Z" fill="#161E2E"/>
<path d="M37.3335 90.6665H44.4446V95.9998H37.3335V90.6665Z" fill="#161E2E"/>
<path d="M63.1112 96.0007H56.0001V90.6674H60.4446V38.223C60.4446 37.7323 60.0464 37.3341 59.5557 37.3341H21.3335V32.0007H59.5557C62.9868 32.0007 65.7779 34.7918 65.7779 38.223V93.3341C65.7779 94.8061 64.5832 96.0007 63.1112 96.0007Z" fill="#161E2E"/>
<path d="M100.444 96.0001H94.222V90.6668H100.444C100.935 90.6668 101.333 90.2686 101.333 89.7779V56.889H76.4442V90.6668H79.9998V96.0001H73.7776C72.3056 96.0001 71.1109 94.8054 71.1109 93.3334V54.2223C71.1109 52.7503 72.3056 51.5557 73.7776 51.5557H104C105.472 51.5557 106.666 52.7503 106.666 54.2223V89.7779C106.666 93.209 103.875 96.0001 100.444 96.0001Z" fill="#161E2E"/>
<path d="M99.5553 54.2222H94.222C94.222 44.9102 86.6451 37.3333 77.3331 37.3333H76.4442V54.2222H71.1109V34.6667C71.1109 33.1947 72.3056 32 73.7776 32H77.3331C89.5856 32 99.5553 41.9698 99.5553 54.2222Z" fill="#161E2E"/>
<path d="M62.2227 90.6665H72.8893V95.9998H62.2227V90.6665Z" fill="#161E2E"/>
</svg>
