<svg width="128" height="128" viewBox="0 0 128 128" fill="none" xmlns="http://www.w3.org/2000/svg">
<g clip-path="url(#clip0_2669_1018)">
<path d="M124.103 72.3733C110.656 51.7831 112.085 30.6773 105.604 20.7538C99.1219 10.8302 79.8045 -6.27913 34.1619 23.5342C-11.4808 53.3475 0.128082 85.7564 7.26053 96.6684C40.6401 147.769 147.922 108.839 124.103 72.3733Z" fill="#F7F7F8"/>
<path d="M93.3333 43.5556C90.3929 43.5556 88 41.1627 88 38.2222C88 35.2818 90.3929 32.8889 93.3333 32.8889C96.2738 32.8889 98.6667 35.2818 98.6667 38.2222C98.6667 41.1627 96.2738 43.5556 93.3333 43.5556ZM93.3333 36.4445C92.352 36.4445 91.5556 37.2445 91.5556 38.2222C91.5556 39.2 92.352 40 93.3333 40C94.3147 40 95.1111 39.2 95.1111 38.2222C95.1111 37.2445 94.3147 36.4445 93.3333 36.4445Z" fill="#D2D6DC"/>
<path d="M0.62636 2.51758L3.14052 0.00342096L8.16883 5.03174L5.65468 7.54589L0.62636 2.51758Z" fill="#D2D6DC"/>
<path d="M15.0782 16.9614L17.5923 14.4473L22.6206 19.4756L20.1065 21.9897L15.0782 16.9614Z" fill="#D2D6DC"/>
<path d="M-0.00121307 19.4839L5.0271 14.4556L7.54126 16.9697L2.51294 21.998L-0.00121307 19.4839Z" fill="#D2D6DC"/>
<path d="M14.4583 5.03052L19.4867 0.00220256L22.0008 2.51636L16.9725 7.54468L14.4583 5.03052Z" fill="#D2D6DC"/>
<path d="M73.778 56H102.222V80.8889H73.778V56Z" fill="#2FDF84"/>
<path d="M73.778 56H102.222V80.8889H73.778V56Z" fill="#2FDF84"/>
<path d="M45.3332 56H73.7777V80.8889H45.3332V56Z" fill="#2FDF84"/>
<path d="M45.3332 31.1111H73.7777V56H45.3332V31.1111Z" fill="#2FDF84"/>
<path d="M45.3332 31.1111H73.7777V56H45.3332V31.1111Z" fill="#2FDF84"/>
<path d="M27.5556 38.2222H38.2223V80.8888H27.5556V38.2222Z" fill="#2FDF84"/>
<path d="M24 80.8889H104V84.2525C104 88.1245 101.643 91.6089 98.0444 93.0454C93.5858 94.8302 90.6596 99.1431 90.6453 103.943V103.996H24V80.8889Z" fill="#F7F7F8"/>
<path d="M73.7776 56H81.7776V80.8889H73.7776V56Z" fill="#00B871"/>
<path d="M45.3332 56H53.3332V80.8889H45.3332V56Z" fill="#00B871"/>
<path d="M45.3332 31.1111H53.3332V56H45.3332V31.1111Z" fill="#00B871"/>
<path d="M24 80.8889H32V104H24V80.8889Z" fill="#D2D6DC"/>
<path d="M102.222 83.5557H73.7775C72.3055 83.5557 71.1108 82.3611 71.1108 80.8891V56.0002C71.1108 54.5282 72.3055 53.3335 73.7775 53.3335H102.222C103.694 53.3335 104.889 54.5282 104.889 56.0002V80.8891C104.889 82.3611 103.694 83.5557 102.222 83.5557ZM76.4442 78.2224H99.5553V58.6668H76.4442V78.2224Z" fill="#161E2E"/>
<path d="M80 63.1113H85.3333V73.778H80V63.1113Z" fill="#161E2E"/>
<path d="M102.222 83.5557H73.7775C72.3055 83.5557 71.1108 82.3611 71.1108 80.8891V56.0002C71.1108 54.5282 72.3055 53.3335 73.7775 53.3335H102.222C103.694 53.3335 104.889 54.5282 104.889 56.0002V80.8891C104.889 82.3611 103.694 83.5557 102.222 83.5557ZM76.4442 78.2224H99.5553V58.6668H76.4442V78.2224Z" fill="#161E2E"/>
<path d="M90.6664 63.1113H95.9997V73.778H90.6664V63.1113Z" fill="#161E2E"/>
<path d="M80 63.1113H85.3333V73.778H80V63.1113Z" fill="#161E2E"/>
<path d="M73.7775 83.5557H45.3331C43.8611 83.5557 42.6664 82.3611 42.6664 80.8891V56.0002C42.6664 54.5282 43.8611 53.3335 45.3331 53.3335H73.7775C75.2495 53.3335 76.4442 54.5282 76.4442 56.0002V80.8891C76.4442 82.3611 75.2495 83.5557 73.7775 83.5557ZM47.9998 78.2224H71.1109V58.6668H47.9998V78.2224Z" fill="#161E2E"/>
<path d="M51.5556 63.1113H56.8889V73.778H51.5556V63.1113Z" fill="#161E2E"/>
<path d="M73.7775 83.5557H45.3331C43.8611 83.5557 42.6664 82.3611 42.6664 80.8891V56.0002C42.6664 54.5282 43.8611 53.3335 45.3331 53.3335H73.7775C75.2495 53.3335 76.4442 54.5282 76.4442 56.0002V80.8891C76.4442 82.3611 75.2495 83.5557 73.7775 83.5557ZM47.9998 78.2224H71.1109V58.6668H47.9998V78.2224Z" fill="#161E2E"/>
<path d="M62.222 63.1113H67.5553V73.778H62.222V63.1113Z" fill="#161E2E"/>
<path d="M51.5556 63.1113H56.8889V73.778H51.5556V63.1113Z" fill="#161E2E"/>
<path d="M73.7775 58.6668H45.3331C43.8611 58.6668 42.6664 57.4721 42.6664 56.0001V31.1112C42.6664 29.6392 43.8611 28.4446 45.3331 28.4446H73.7775C75.2495 28.4446 76.4442 29.6392 76.4442 31.1112V56.0001C76.4442 57.4721 75.2495 58.6668 73.7775 58.6668ZM47.9998 53.3335H71.1109V33.7779H47.9998V53.3335Z" fill="#161E2E"/>
<path d="M51.5556 38.2224H56.8889V48.8891H51.5556V38.2224Z" fill="#161E2E"/>
<path d="M73.7775 58.6668H45.3331C43.8611 58.6668 42.6664 57.4721 42.6664 56.0001V31.1112C42.6664 29.6392 43.8611 28.4446 45.3331 28.4446H73.7775C75.2495 28.4446 76.4442 29.6392 76.4442 31.1112V56.0001C76.4442 57.4721 75.2495 58.6668 73.7775 58.6668ZM47.9998 53.3335H71.1109V33.7779H47.9998V53.3335Z" fill="#161E2E"/>
<path d="M62.222 38.2224H67.5553V48.8891H62.222V38.2224Z" fill="#161E2E"/>
<path d="M51.5556 38.2224H56.8889V48.8891H51.5556V38.2224Z" fill="#161E2E"/>
<path d="M38.2221 83.5557H27.5555C26.0835 83.5557 24.8888 82.361 24.8888 80.889V38.2223C24.8888 36.7503 26.0835 35.5557 27.5555 35.5557H38.2221C39.6941 35.5557 40.8888 36.7503 40.8888 38.2223V80.889C40.8888 82.361 39.6941 83.5557 38.2221 83.5557ZM30.2221 78.2223H35.5555V40.889H30.2221V78.2223Z" fill="#161E2E"/>
<path d="M30.222 21.3335H35.5554V40.889H30.222V21.3335Z" fill="#161E2E"/>
<path d="M90.6488 106.667H23.9999C22.5279 106.667 21.3332 105.472 21.3332 104V80.8891C21.3332 79.4171 22.5279 78.2224 23.9999 78.2224H104C105.472 78.2224 106.667 79.4171 106.667 80.8891V84.2526C106.667 89.2446 103.669 93.6713 99.0363 95.5237C95.5696 96.914 93.3261 100.221 93.3154 103.954C93.3119 105.422 92.1172 106.667 90.6488 106.667ZM26.6665 101.334H88.2274C89.1234 96.498 92.391 92.4375 97.0523 90.5744C99.6514 89.5362 101.333 87.0544 101.333 84.2562V83.5557H26.6665V101.334Z" fill="#161E2E"/>
<path d="M24 88.8892H100.558V94.2225H24V88.8892Z" fill="#161E2E"/>
</g>
<defs>
<clipPath id="clip0_2669_1018">
<rect width="128" height="128" fill="white"/>
</clipPath>
</defs>
</svg>
